<svg aria-hidden="true" style="position:absolute;width:0;height:0;overflow:hidden" xmlns="http://www.w3.org/2000/svg">
  <defs>
    <symbol id="icon-youtube" viewBox="0 0 32 32">
      <path d="M31.333 8.676a3.71 3.71 0 0 0-1.021-1.693 4.068 4.068 0 0 0-1.784-.989c-2.504-.66-12.536-.66-12.536-.66-4.182-.048-8.363.162-12.52.627a4.223 4.223 0 0 0-1.784 1.013A3.86 3.86 0 0 0 .651 8.675 38.87 38.87 0 0 0 0 16a38.651 38.651 0 0 0 .651 7.325c.183.639.539 1.221 1.033 1.692s1.111.811 1.788.991c2.537.659 12.52.659 12.52.659 4.188.048 8.374-.162 12.536-.627a4.068 4.068 0 0 0 1.784-.989 3.705 3.705 0 0 0 1.02-1.693c.46-2.415.684-4.869.668-7.327a35.404 35.404 0 0 0-.667-7.356v.001zM12.802 20.565v-9.129l8.347 4.565-8.347 4.564z"/>
    </symbol>
    <symbol id="icon-bi_arrow-left-short-1" viewBox="0 0 32 32">
      <path d="M8 16a.997.997 0 0 0 1 1h11.586l-4.294 4.292a.991.991 0 0 0-.293.708 1.006 1.006 0 0 0 .618.925 1.01 1.01 0 0 0 .766 0c.121-.05.232-.124.325-.217l6-6a1.01 1.01 0 0 0 .294-.708 1.006 1.006 0 0 0-.294-.708l-6-6a1 1 0 0 0-1.709.708c0 .266.106.52.293.708L20.586 15H9a.997.997 0 0 0-1 1z"/>
    </symbol>
    <symbol id="icon-bi_arrow-left-short" viewBox="0 0 32 32">
      <path d="M24 16a.997.997 0 0 1-1 1H11.414l4.294 4.292a.991.991 0 0 1 .293.708 1.006 1.006 0 0 1-.618.925 1.01 1.01 0 0 1-.766 0 1.002 1.002 0 0 1-.325-.217l-6-6A.991.991 0 0 1 7.999 16a1.002 1.002 0 0 1 .293-.708l6-6a1 1 0 0 1 1.709.708 1 1 0 0 1-.293.708L11.414 15H23a.997.997 0 0 1 1 1z"/>
    </symbol>
    <symbol id="icon-bi_wechat" viewBox="0 0 32 32">
      <path d="M22.352 28.858c-5.33 0-9.652-3.6-9.652-8.036 0-4.44 4.318-8.04 9.648-8.04S32 16.382 32 20.822c0 2.42-1.3 4.602-3.332 6.072a.64.64 0 0 0-.24.732l.436 1.62c.027.076.046.154.058.234a.329.329 0 0 1-.324.324.347.347 0 0 1-.184-.06l-2.114-1.22a1.039 1.039 0 0 0-.512-.148 1.05 1.05 0 0 0-.284.042 11.354 11.354 0 0 1-3.152.44zm-4.224-9.774a1.301 1.301 0 0 0 1.129.587 1.298 1.298 0 0 0 1.25-1.3 1.286 1.286 0 0 0-.632-1.104 1.29 1.29 0 0 0-.632-.182 1.293 1.293 0 0 0-1.292 1.294c-.013.248.05.494.18.706h-.002zm6.464.002a1.289 1.289 0 0 0 1.762.39 1.286 1.286 0 0 0 .611-1.118 1.286 1.286 0 0 0-.645-1.098 1.277 1.277 0 0 0-.635-.173 1.29 1.29 0 0 0-1.288 1.288c-.008.252.061.5.196.712z"/>
      <path d="M0 13.652c0 2.91 1.562 5.53 4.002 7.312a.769.769 0 0 1 .286.878l-.322 1.2-.2.746a1 1 0 0 0-.064.28.394.394 0 0 0 .113.274.397.397 0 0 0 .274.113c.078 0 .154-.02.222-.058l2.536-1.466c.186-.111.399-.172.616-.176.116 0 .232.018.342.05 1.058.304 2.15.478 3.25.52a8.898 8.898 0 0 1-.354-2.502c0-5.872 5.57-10.04 11.648-10.04.1 0 .2 0 .3.004-1.474-3.928-5.864-6.786-11.056-6.786-6.4 0-11.592 4.32-11.592 9.652zm9.264-3.11a1.54 1.54 0 1 1-3.08 0 1.54 1.54 0 0 1 3.08 0zm7.75 0a1.54 1.54 0 1 1-3.08 0 1.54 1.54 0 0 1 3.08 0z"/>
    </symbol>
    <symbol id="icon-location" viewBox="0 0 32 32">
      <path d="M16 28a39.756 39.756 0 0 1-4.667-4.708c-2.133-2.548-4.667-6.343-4.667-9.959a9.33 9.33 0 0 1 5.762-8.627 9.337 9.337 0 0 1 10.175 2.026 9.278 9.278 0 0 1 2.731 6.601c0 3.616-2.533 7.411-4.667 9.959A39.756 39.756 0 0 1 16 28zm0-18.667a4.003 4.003 0 0 0-4 4 4.003 4.003 0 0 0 4 4 4.003 4.003 0 0 0 4-4 4.001 4.001 0 0 0-4-4z"/>
    </symbol>
    <symbol id="icon-vk" viewBox="0 0 32 32">
      <path d="M28.483 19.677s2.587 2.555 3.227 3.738a.229.229 0 0 1 .029.056c.261.437.325.779.197 1.032-.216.418-.947.627-1.195.645h-4.573c-.318 0-.981-.083-1.787-.64-.616-.43-1.229-1.139-1.822-1.832-.886-1.029-1.653-1.922-2.429-1.922a.883.883 0 0 0-.288.048c-.587.186-1.333 1.022-1.333 3.251 0 .698-.55 1.094-.936 1.094h-2.094c-.714 0-4.429-.25-7.723-3.723C3.719 17.171.094 8.64.058 8.565c-.226-.552.248-.853.76-.853h4.618c.619 0 .821.374.962.71.163.386.768 1.928 1.76 3.661 1.606 2.819 2.594 3.966 3.382 3.966a.843.843 0 0 0 .422-.112c1.03-.566.838-4.246.79-5.005 0-.147-.002-1.643-.53-2.366-.378-.518-1.021-.72-1.41-.794.104-.15.325-.381.608-.517.706-.352 1.981-.403 3.246-.403h.702c1.373.019 1.728.107 2.227.234 1.005.24 1.024.891.936 3.109a51.239 51.239 0 0 0-.053 2.187c0 .179-.008.379-.008.582-.03 1.138-.07 2.419.733 2.946a.656.656 0 0 0 .347.099c.278 0 1.112 0 3.373-3.88.992-1.714 1.76-3.734 1.813-3.886.045-.085.179-.323.342-.419a.764.764 0 0 1 .378-.09h5.432c.592 0 .994.09 1.072.314.131.363-.026 1.472-2.506 4.826-.418.558-.784 1.042-1.106 1.464-2.248 2.95-2.248 3.099.133 5.339z"/>
    </symbol>
    <symbol id="icon-mail" viewBox="0 0 32 32">
      <path d="M8 6a4.003 4.003 0 0 0-4 4v.402l12 6.462 12-6.46V10a4.003 4.003 0 0 0-4-4H8zm20 6.674L16.474 18.88a1.007 1.007 0 0 1-.948 0L4 12.674V22a4.003 4.003 0 0 0 4 4h16a4.003 4.003 0 0 0 4-4v-9.326z"/>
    </symbol>
    <symbol id="icon-logo" viewBox="0 0 32 32">
      <path d="M28.002 2.935a.862.862 0 0 0-.363-.691c-.155-.101-1.097-.11-11.645-.11-10.95 0-11.67-.025-11.814.251-.022.042-.031.092-.061.15-.2.386-.142.55.716 2.028 1.65 2.842 2.534 4.38 2.534 4.409 0 .016-1.533.03-3.407.03-3.354 0-3.41.002-3.585.139-.212.166-.376.461-.376.677 0 .145.405.886 1.688 3.084l1.374 2.367 2.009 3.467 2.764 4.767c.893 1.54 1.765 3.04 1.939 3.333s.611 1.046.971 1.672c.706 1.229.834 1.361 1.307 1.361a.598.598 0 0 0 .471-.183c.109-.101.76-1.158 1.448-2.35 1.891-3.277 2.003-3.467 2.04-3.466.019 0 .185.263.369.583 1.91 3.334 2.951 5.08 3.118 5.233.156.143.267.183.5.183.436 0 .596-.181 1.414-1.6a2825.69 2825.69 0 0 1 3.976-6.862l3.132-5.4a1688.43 1688.43 0 0 1 2.251-3.871c1.285-2.2 1.29-2.21 1.195-2.528a1.06 1.06 0 0 0-.284-.434l-.205-.172h-3.419c-2.707 0-3.412-.017-3.386-.083.031-.081.47-.842 2.415-4.196.641-1.105.916-1.641.916-1.787zM11.02 7.721a92.138 92.138 0 0 1-.889-1.565l-.152-.288h12.073l-.224.39-.894 1.564-.67 1.173-8.508.003-.737-1.277zm-4.586 5.846a30.65 30.65 0 0 1-.396-.684l-.081-.151 3.636.035 2.107 3.628c1.304 2.246 2.092 3.667 2.067 3.731-.047.122-1.641 2.882-1.711 2.964-.027.031-.213-.224-.414-.567-.638-1.086-2.067-3.543-3.502-6.023-.764-1.32-1.531-2.64-1.705-2.933zm9.588 2.659c-.041.025-1.889-3.109-1.991-3.375-.042-.11.08-.117 1.98-.117 1.718 0 2.019.014 1.988.094-.02.052-.39.704-.823 1.45s-.859 1.483-.948 1.638c-.089.155-.181.295-.206.309zm4.575-.326a422.582 422.582 0 0 1 1.752-3.017c.095-.149.103-.15 1.877-.15 1.66 0 1.778.008 1.736.115s-.554.999-2.385 4.151c-.394.678-1.341 2.313-2.105 3.633s-1.411 2.424-1.44 2.454c-.051.054-1.811-2.895-1.811-3.035 0-.041.162-.346.36-.68s1.105-1.896 2.016-3.472z"/>
    </symbol>
    <symbol id="icon-Vector" viewBox="0 0 32 32">
      <path d="M29.331 3.257 2.054 13.775c-1.862.748-1.851 1.786-.342 2.249l7.003 2.185L24.918 7.986c.766-.466 1.466-.215.891.295L12.681 20.13l-.483 7.218c.708 0 1.02-.325 1.417-.708l3.401-3.308 7.075 5.226c1.305.719 2.241.349 2.566-1.208l4.645-21.889c.475-1.906-.728-2.769-1.972-2.206z"/>
    </symbol>
    <symbol id="icon-menu_40px" viewBox="0 0 32 32">
      <path d="M6.4 11.733V9.6h19.2v2.133H6.4zm0 5.334h19.2v-2.133H6.4v2.133zm0 5.333h19.2v-2.133H6.4V22.4z"/>
    </symbol>
    <symbol id="icon-phone" viewBox="0 0 32 32">
      <path d="M20.33 21.48l2.24-2.24c0.302-0.298 0.683-0.502 1.099-0.587s0.847-0.048 1.241 0.107l2.73 1.090c0.399 0.162 0.741 0.438 0.983 0.794s0.373 0.775 0.377 1.206v5c-0.002 0.293-0.064 0.582-0.181 0.85s-0.287 0.51-0.5 0.711c-0.213 0.201-0.464 0.357-0.739 0.458s-0.567 0.146-0.86 0.131c-19.13-1.19-22.99-17.39-23.72-23.59-0.034-0.304-0.003-0.613 0.091-0.904s0.248-0.56 0.453-0.788c0.205-0.228 0.456-0.409 0.736-0.533s0.583-0.187 0.89-0.185h4.83c0.431 0.001 0.852 0.131 1.208 0.374s0.632 0.586 0.792 0.986l1.090 2.73c0.16 0.393 0.201 0.825 0.118 1.241s-0.288 0.798-0.588 1.099l-2.24 2.24c0 0 1.29 8.73 9.95 9.81z"></path>
    </symbol>
  </defs>
</svg>
